<svg xmlns="http://www.w3.org/2000/svg" viewBox="121 20 512 166" width="512" height="166"><defs><linearGradient id="bankGrad" x1="0" y1="0" x2="1" y2="0"><stop offset="0" stop-color="#FF2E27"></stop><stop offset="0.34" stop-color="#FF8F1B"></stop><stop offset="0.67" stop-color="#63AEF1"></stop><stop offset="1" stop-color="#04C537"></stop></linearGradient></defs><rect width="700" height="250" fill="#081C2A"></rect><path d="M138.05 107.40Q140.65 101.90 146.30 98.25Q151.95 94.60 159.75 94.60L159.75 94.60Q167.15 94.60 173.10 98.05Q179.05 101.50 182.40 107.85Q185.75 114.20 185.75 122.60L185.75 122.60Q185.75 131 182.40 137.40Q179.05 143.80 173.10 147.30Q167.15 150.80 159.75 150.80L159.75 150.80Q152.05 150.80 146.35 147.15Q140.65 143.50 138.05 138L138.05 138L138.05 175.80L131.15 175.80L131.15 95.40L138.05 95.40L138.05 107.40ZM178.65 122.60Q178.65 115.80 176 110.85Q173.35 105.90 168.75 103.30Q164.15 100.70 158.35 100.70L158.35 100.70Q152.75 100.70 148.10 103.40Q143.45 106.10 140.75 111.10Q138.05 116.10 138.05 122.70L138.05 122.70Q138.05 129.30 140.75 134.30Q143.45 139.30 148.10 142Q152.75 144.70 158.35 144.70L158.35 144.70Q164.15 144.70 168.75 142.05Q173.35 139.40 176 134.35Q178.65 129.30 178.65 122.60L178.65 122.60ZM222.55 150.80Q214.85 150.80 208.70 147.35Q202.55 143.90 199 137.55Q195.45 131.20 195.45 122.70L195.45 122.70Q195.45 114.20 199.05 107.85Q202.65 101.50 208.85 98.05Q215.05 94.60 222.75 94.60L222.75 94.60Q230.45 94.60 236.70 98.05Q242.95 101.50 246.50 107.85Q250.05 114.20 250.05 122.70L250.05 122.70Q250.05 131.10 246.45 137.50Q242.85 143.90 236.55 147.35Q230.25 150.80 222.55 150.80L222.55 150.80ZM222.55 144.70Q227.95 144.70 232.55 142.25Q237.15 139.80 240 134.85Q242.85 129.90 242.85 122.70L242.85 122.70Q242.85 115.50 240.05 110.55Q237.25 105.60 232.65 103.15Q228.05 100.70 222.65 100.70L222.65 100.70Q217.25 100.70 212.65 103.15Q208.05 105.60 205.30 110.55Q202.55 115.50 202.55 122.70L202.55 122.70Q202.55 129.90 205.30 134.85Q208.05 139.80 212.60 142.25Q217.15 144.70 222.55 144.70L222.55 144.70ZM281.65 150.80Q272.25 150.80 266.30 146.45Q260.35 142.10 259.65 134.60L259.65 134.60L266.85 134.60Q267.35 139.20 271.20 142.05Q275.05 144.90 281.55 144.90L281.55 144.90Q287.25 144.90 290.50 142.20Q293.75 139.50 293.75 135.50L293.75 135.50Q293.75 132.70 291.95 130.90Q290.15 129.10 287.40 128.05Q284.65 127 279.95 125.80L279.95 125.80Q273.85 124.20 270.05 122.60Q266.25 121 263.60 117.85Q260.95 114.70 260.95 109.40L260.95 109.40Q260.95 105.40 263.35 102Q265.75 98.60 270.15 96.60Q274.55 94.60 280.15 94.60L280.15 94.60Q288.95 94.60 294.35 99.05Q299.75 103.50 300.15 111.30L300.15 111.30L293.15 111.30Q292.85 106.50 289.40 103.55Q285.95 100.60 279.95 100.60L279.95 100.60Q274.65 100.60 271.35 103.10Q268.05 105.60 268.05 109.30L268.05 109.30Q268.05 112.50 270 114.55Q271.95 116.60 274.85 117.75Q277.75 118.90 282.65 120.30L282.65 120.30Q288.55 121.90 292.05 123.40Q295.55 124.90 298.05 127.80Q300.55 130.70 300.65 135.50L300.65 135.50Q300.65 139.90 298.25 143.35Q295.85 146.80 291.55 148.80Q287.25 150.80 281.65 150.80L281.65 150.80Z" fill="#FFFFFF"></path><path d="M335.15 102.10Q337.55 98.20 342.05 95.80Q346.55 93.40 352.35 93.40L352.35 93.40Q359.25 93.40 364.85 96.90Q370.45 100.40 373.70 106.90Q376.95 113.40 376.95 122L376.95 122Q376.95 130.60 373.70 137.15Q370.45 143.70 364.85 147.25Q359.25 150.80 352.35 150.80L352.35 150.80Q346.45 150.80 342.05 148.45Q337.65 146.10 335.15 142.20L335.15 142.20L335.15 150L318.05 150L318.05 76L335.15 76L335.15 102.10ZM359.55 122Q359.55 115.60 356 111.95Q352.45 108.30 347.25 108.30L347.25 108.30Q342.15 108.30 338.60 112Q335.05 115.70 335.05 122.10L335.05 122.10Q335.05 128.50 338.60 132.20Q342.15 135.90 347.25 135.90L347.25 135.90Q352.35 135.90 355.95 132.15Q359.55 128.40 359.55 122L359.55 122ZM382.55 122Q382.55 113.40 385.80 106.90Q389.05 100.40 394.65 96.90Q400.25 93.40 407.15 93.40L407.15 93.40Q413.05 93.40 417.50 95.80Q421.95 98.20 424.35 102.10L424.35 102.10L424.35 94.20L441.45 94.20L441.45 150L424.35 150L424.35 142.10Q421.85 146 417.40 148.40Q412.95 150.80 407.05 150.80L407.05 150.80Q400.25 150.80 394.65 147.25Q389.05 143.70 385.80 137.15Q382.55 130.60 382.55 122L382.55 122ZM424.35 122.10Q424.35 115.70 420.80 112Q417.25 108.30 412.15 108.30L412.15 108.30Q407.05 108.30 403.50 111.95Q399.95 115.60 399.95 122L399.95 122Q399.95 128.40 403.50 132.15Q407.05 135.90 412.15 135.90L412.15 135.90Q417.25 135.90 420.80 132.20Q424.35 128.50 424.35 122.10L424.35 122.10ZM487.85 93.60Q497.65 93.60 503.50 99.95Q509.35 106.30 509.35 117.40L509.35 117.40L509.35 150L492.35 150L492.35 119.70Q492.35 114.10 489.45 111Q486.55 107.90 481.65 107.90L481.65 107.90Q476.75 107.90 473.85 111Q470.95 114.10 470.95 119.70L470.95 119.70L470.95 150L453.85 150L453.85 94.20L470.95 94.20L470.95 101.60Q473.55 97.90 477.95 95.75Q482.35 93.60 487.85 93.60L487.85 93.60ZM576.55 150L555.35 150L538.35 126.60L538.35 150L521.25 150L521.25 76L538.35 76L538.35 116.90L555.25 94.20L576.35 94.20L553.15 122.20L576.55 150Z" fill="url(#bankGrad)"></path><g transform="translate(594.85 58)"><circle r="26" fill="#0B1220" stroke="#fff" stroke-width="3.25"></circle><g transform="rotate(52)"><path d="M0 -20.8 L6.5 0 L0 0 Z" fill="#04C537"></path><path d="M0 -20.8 L-6.5 0 L0 0 Z" fill="#039A2A"></path><path d="M0 20.8 L6.5 0 L0 0 Z" fill="#fff"></path><path d="M0 20.8 L-6.5 0 L0 0 Z" fill="#fff"></path></g><circle r="3.12" fill="#0B1220" stroke="#fff" stroke-width="1.56"></circle></g><path d="M153.23 193.83L155.47 193.83L155.47 200.74Q155.47 201.88 156.06 202.48Q156.65 203.08 157.72 203.08L157.72 203.08Q158.81 203.08 159.40 202.48Q160.00 201.88 160.00 200.74L160.00 200.74L160.00 193.83L162.25 193.83L162.25 200.73Q162.25 202.15 161.64 203.14Q161.02 204.12 159.99 204.62Q158.96 205.11 157.69 205.11L157.69 205.11Q156.44 205.11 155.43 204.62Q154.41 204.12 153.82 203.14Q153.23 202.15 153.23 200.73L153.23 200.73L153.23 193.83Z M178.96 193.82L178.96 205L176.72 205L171.65 197.34L171.65 205L169.41 205L169.41 193.82L171.65 193.82L176.72 201.50L176.72 193.82L178.96 193.82Z  M201.32 199.27Q202.26 199.45 202.87 200.22Q203.48 200.98 203.48 201.98L203.48 201.98Q203.48 202.87 203.04 203.55Q202.60 204.23 201.76 204.62Q200.93 205 199.80 205L199.80 205L194.98 205L194.98 193.83L199.59 193.83Q200.72 193.83 201.55 194.20Q202.37 194.57 202.80 195.22Q203.22 195.88 203.22 196.71L203.22 196.71Q203.22 197.69 202.70 198.34Q202.18 199 201.32 199.27L201.32 199.27ZM197.22 195.64L197.22 198.44L199.27 198.44Q200.07 198.44 200.50 198.08Q200.93 197.72 200.93 197.05L200.93 197.05Q200.93 196.38 200.50 196.01Q200.07 195.64 199.27 195.64L199.27 195.64L197.22 195.64ZM199.48 203.18Q200.29 203.18 200.75 202.79Q201.20 202.41 201.20 201.70L201.20 201.70Q201.20 200.98 200.72 200.58Q200.24 200.17 199.43 200.17L199.43 200.17L197.22 200.17L197.22 203.18L199.48 203.18Z M217.85 205L217.12 202.87L212.67 202.87L211.93 205L209.58 205L213.60 193.82L216.20 193.82L220.22 205L217.85 205ZM213.28 201.08L216.51 201.08L214.89 196.41L213.28 201.08Z M236.28 193.82L236.28 205L234.04 205L228.96 197.34L228.96 205L226.72 205L226.72 193.82L228.96 193.82L234.04 201.50L234.04 193.82L236.28 193.82Z M242.94 199.40Q242.94 197.75 243.68 196.45Q244.43 195.14 245.72 194.42Q247.00 193.69 248.60 193.69L248.60 193.69Q250.48 193.69 251.88 194.65Q253.29 195.61 253.85 197.30L253.85 197.30L251.28 197.30Q250.89 196.50 250.20 196.10Q249.50 195.70 248.59 195.70L248.59 195.70Q247.61 195.70 246.85 196.16Q246.09 196.62 245.67 197.45Q245.24 198.28 245.24 199.40L245.24 199.40Q245.24 200.50 245.67 201.34Q246.09 202.18 246.85 202.64Q247.61 203.10 248.59 203.10L248.59 203.10Q249.50 203.10 250.20 202.69Q250.89 202.28 251.28 201.48L251.28 201.48L253.85 201.48Q253.29 203.19 251.89 204.14Q250.49 205.10 248.60 205.10L248.60 205.10Q247.00 205.10 245.72 204.37Q244.43 203.64 243.68 202.34Q242.94 201.05 242.94 199.40L242.94 199.40Z M265.96 205.11Q264.39 205.11 263.08 204.38Q261.76 203.64 261.00 202.34Q260.23 201.03 260.23 199.38L260.23 199.38Q260.23 197.75 261.00 196.45Q261.76 195.14 263.08 194.41Q264.39 193.67 265.96 193.67L265.96 193.67Q267.54 193.67 268.84 194.41Q270.15 195.14 270.91 196.45Q271.67 197.75 271.67 199.38L271.67 199.38Q271.67 201.03 270.91 202.34Q270.15 203.64 268.84 204.38Q267.52 205.11 265.96 205.11L265.96 205.11ZM265.96 203.11Q266.96 203.11 267.73 202.66Q268.50 202.20 268.93 201.35Q269.36 200.50 269.36 199.38L269.36 199.38Q269.36 198.26 268.93 197.42Q268.50 196.58 267.73 196.14Q266.96 195.69 265.96 195.69L265.96 195.69Q264.95 195.69 264.17 196.14Q263.40 196.58 262.96 197.42Q262.53 198.26 262.53 199.38L262.53 199.38Q262.53 200.50 262.96 201.35Q263.40 202.20 264.17 202.66Q264.95 203.11 265.96 203.11L265.96 203.11Z  M293.62 195.64L289.38 195.64L289.38 198.44L293.14 198.44L293.14 200.22L289.38 200.22L289.38 203.18L293.62 203.18L293.62 205L287.14 205L287.14 193.82L293.62 193.82L293.62 195.64Z M310.20 193.82L310.20 205L307.96 205L302.89 197.34L302.89 205L300.65 205L300.65 193.82L302.89 193.82L307.96 201.50L307.96 193.82L310.20 193.82Z  M332.70 195.64L328.46 195.64L328.46 198.44L332.22 198.44L332.22 200.22L328.46 200.22L328.46 203.18L332.70 203.18L332.70 205L326.22 205L326.22 193.82L332.70 193.82L332.70 195.64Z M341.97 193.83L341.97 203.22L345.65 203.22L345.65 205L339.73 205L339.73 193.83L341.97 193.83Z  M369.03 197.29Q369.03 198.18 368.60 198.97Q368.18 199.75 367.28 200.23Q366.37 200.71 365.00 200.71L365.00 200.71L363.12 200.71L363.12 205L360.88 205L360.88 193.83L365.00 193.83Q366.29 193.83 367.20 194.28Q368.12 194.73 368.57 195.51Q369.03 196.30 369.03 197.29L369.03 197.29ZM364.90 198.90Q365.83 198.90 366.28 198.48Q366.72 198.06 366.72 197.29L366.72 197.29Q366.72 195.66 364.90 195.66L364.90 195.66L363.12 195.66L363.12 198.90L364.90 198.90Z M375.58 193.83L377.82 193.83L377.82 200.74Q377.82 201.88 378.41 202.48Q379.00 203.08 380.08 203.08L380.08 203.08Q381.16 203.08 381.76 202.48Q382.35 201.88 382.35 200.74L382.35 200.74L382.35 193.83L384.60 193.83L384.60 200.73Q384.60 202.15 383.99 203.14Q383.37 204.12 382.34 204.62Q381.31 205.11 380.04 205.11L380.04 205.11Q378.80 205.11 377.78 204.62Q376.76 204.12 376.17 203.14Q375.58 202.15 375.58 200.73L375.58 200.73L375.58 193.83Z M401.32 193.82L401.32 205L399.08 205L394.00 197.34L394.00 205L391.76 205L391.76 193.82L394.00 193.82L399.08 201.50L399.08 193.82L401.32 193.82Z M407.93 193.83L416.12 193.83L416.12 195.64L413.15 195.64L413.15 205L410.91 205L410.91 195.64L407.93 195.64L407.93 193.83Z M427.94 205.11Q426.37 205.11 425.06 204.38Q423.75 203.64 422.98 202.34Q422.21 201.03 422.21 199.38L422.21 199.38Q422.21 197.75 422.98 196.45Q423.75 195.14 425.06 194.41Q426.37 193.67 427.94 193.67L427.94 193.67Q429.52 193.67 430.83 194.41Q432.13 195.14 432.89 196.45Q433.65 197.75 433.65 199.38L433.65 199.38Q433.65 201.03 432.89 202.34Q432.13 203.64 430.82 204.38Q429.51 205.11 427.94 205.11L427.94 205.11ZM427.94 203.11Q428.95 203.11 429.72 202.66Q430.48 202.20 430.92 201.35Q431.35 200.50 431.35 199.38L431.35 199.38Q431.35 198.26 430.92 197.42Q430.48 196.58 429.72 196.14Q428.95 195.69 427.94 195.69L427.94 195.69Q426.93 195.69 426.16 196.14Q425.38 196.58 424.95 197.42Q424.52 198.26 424.52 199.38L424.52 199.38Q424.52 200.50 424.95 201.35Q425.38 202.20 426.16 202.66Q426.93 203.11 427.94 203.11L427.94 203.11Z  M453.03 193.83Q454.79 193.83 456.12 194.52Q457.46 195.21 458.19 196.48Q458.92 197.75 458.92 199.43L458.92 199.43Q458.92 201.11 458.19 202.37Q457.46 203.62 456.12 204.31Q454.79 205 453.03 205L453.03 205L449.12 205L449.12 193.83L453.03 193.83ZM452.95 203.10Q454.71 203.10 455.67 202.14Q456.63 201.18 456.63 199.43L456.63 199.43Q456.63 197.69 455.67 196.70Q454.71 195.72 452.95 195.72L452.95 195.72L451.36 195.72L451.36 203.10L452.95 203.10Z M472.08 195.64L467.84 195.64L467.84 198.44L471.60 198.44L471.60 200.22L467.84 200.22L467.84 203.18L472.08 203.18L472.08 205L465.60 205L465.60 193.82L472.08 193.82L472.08 195.64Z  M496.06 197.29Q496.06 198.18 495.64 198.97Q495.21 199.75 494.31 200.23Q493.40 200.71 492.03 200.71L492.03 200.71L490.16 200.71L490.16 205L487.92 205L487.92 193.83L492.03 193.83Q493.32 193.83 494.24 194.28Q495.15 194.73 495.60 195.51Q496.06 196.30 496.06 197.29L496.06 197.29ZM491.93 198.90Q492.86 198.90 493.31 198.48Q493.76 198.06 493.76 197.29L493.76 197.29Q493.76 195.66 491.93 195.66L491.93 195.66L490.16 195.66L490.16 198.90L491.93 198.90Z M510.23 205L509.49 202.87L505.04 202.87L504.31 205L501.96 205L505.97 193.82L508.58 193.82L512.60 205L510.23 205ZM505.65 201.08L508.88 201.08L507.27 196.41L505.65 201.08Z M529.45 197.19L526.88 197.19Q526.49 196.49 525.82 196.12Q525.15 195.75 524.25 195.75L524.25 195.75Q523.26 195.75 522.49 196.20Q521.72 196.65 521.29 197.48Q520.86 198.31 520.86 199.40L520.86 199.40Q520.86 200.52 521.30 201.35Q521.74 202.18 522.52 202.63Q523.31 203.08 524.35 203.08L524.35 203.08Q525.63 203.08 526.44 202.40Q527.26 201.72 527.52 200.50L527.52 200.50L523.68 200.50L523.68 198.79L529.72 198.79L529.72 200.74Q529.50 201.91 528.76 202.90Q528.03 203.90 526.87 204.50Q525.71 205.10 524.27 205.10L524.27 205.10Q522.65 205.10 521.35 204.37Q520.04 203.64 519.30 202.34Q518.56 201.05 518.56 199.40L518.56 199.40Q518.56 197.75 519.30 196.45Q520.04 195.14 521.35 194.42Q522.65 193.69 524.25 193.69L524.25 193.69Q526.14 193.69 527.53 194.61Q528.92 195.53 529.45 197.19L529.45 197.19Z M541.57 205.11Q540.00 205.11 538.69 204.38Q537.38 203.64 536.61 202.34Q535.84 201.03 535.84 199.38L535.84 199.38Q535.84 197.75 536.61 196.45Q537.38 195.14 538.69 194.41Q540.00 193.67 541.57 193.67L541.57 193.67Q543.16 193.67 544.46 194.41Q545.76 195.14 546.52 196.45Q547.28 197.75 547.28 199.38L547.28 199.38Q547.28 201.03 546.52 202.34Q545.76 203.64 544.45 204.38Q543.14 205.11 541.57 205.11L541.57 205.11ZM541.57 203.11Q542.58 203.11 543.35 202.66Q544.12 202.20 544.55 201.35Q544.98 200.50 544.98 199.38L544.98 199.38Q544.98 198.26 544.55 197.42Q544.12 196.58 543.35 196.14Q542.58 195.69 541.57 195.69L541.57 195.69Q540.56 195.69 539.79 196.14Q539.01 196.58 538.58 197.42Q538.15 198.26 538.15 199.38L538.15 199.38Q538.15 200.50 538.58 201.35Q539.01 202.20 539.79 202.66Q540.56 203.11 541.57 203.11L541.57 203.11Z " fill="#94A3B8"></path></svg>